<?xml version="1.0" encoding="UTF-8"?>
<svg width="120px" height="73px" viewBox="0 0 120 73" version="1.1" xmlns="http://www.w3.org/2000/svg" xmlns:xlink="http://www.w3.org/1999/xlink">
    <!-- Generator: Sketch 53.2 (72643) - https://sketchapp.com -->
    <title>logo-tcl-120x73</title>
    <desc>Created with Sketch.</desc>
    <g id="Page-1" stroke="none" stroke-width="1" fill="none" fill-rule="evenodd">
        <g id="logo-tcl-120x73" fill-rule="nonzero">
            <path d="M0,0 L119.748286,0 L119.741143,54.8074286 C119.741143,64.7494286 111.721714,72.8908571 101.913714,72.8908571 L0,72.8908571 L0,0 Z" id="Path" fill="#E30613"></path>
            <polygon id="Path" fill="#FFFFFF" points="17.8308571 31.2528571 27.3514286 31.2528571 27.3514286 48.5722857 35.8694286 48.5722857 35.8694286 31.2528571 45.3885714 31.2528571 45.3885714 24.2682857 17.8308571 24.2682857"></polygon>
            <path d="M62.0677143,43.5608571 C60.0911429,43.5608571 58.604,43.0048571 57.3557143,41.7922857 C56.1234286,40.63 55.2231429,38.8434286 55.2231429,36.4345714 L55.2231429,36.058 C55.2231429,33.6471429 56.1237143,31.8305714 57.3557143,30.6822857 C58.604,29.486 60.1037143,28.9371429 62.0728571,28.9371429 C66.7257143,28.9371429 67.7157143,31.7445714 68.0082857,33.5722857 L75.5631429,33.5722857 C75.3891429,29.8662857 73.6548571,27.2691429 71.1937143,25.5528571 C68.7562857,23.8274286 65.9131429,22.9537143 62.1554286,22.9537143 C57.5297143,22.9537143 54.2274286,23.9957143 51.546,26.306 C48.8214286,28.6917143 47.3648571,32.4171429 47.3648571,36.1425714 L47.3648571,36.3505714 C47.3648571,40.4114286 48.6205714,43.4751429 51.4222857,46.0597143 C54.0268571,48.4542857 57.8328571,49.5554286 62.064,49.5414286 C65.8182857,49.5414286 69.036,48.6568571 71.2637143,46.9477143 C73.7174286,45.0622857 75.3928571,42.4202857 75.5937143,38.946 L68.0551429,38.946 C67.8451429,40.4114286 66.9411429,43.5608571 62.0677143,43.5608571" id="Path" fill="#FFFFFF"></path>
            <polygon id="Path" fill="#FFFFFF" points="88.2062857 41.644 88.2062857 24 80 24 80 48.2985714 101.654857 48.2985714 101.654857 41.644"></polygon>
        </g>
    </g>
</svg>